<?xml version="1.0" encoding="utf-8"?>
<svg viewBox="0 0 192 192" xmlns="http://www.w3.org/2000/svg">
  <path fill="#93BF41" opacity="1.000000" stroke="none" d=" M59.082176,121.061539 C55.526592,129.064606 47.344574,132.639038 41.188797,124.919777 C37.851868,120.735321 33.252701,117.573532 29.378263,113.791290 C28.295004,112.733818 27.764200,111.110413 26.965631,108.913628 C26.933125,99.374184 26.914959,90.667740 26.896793,81.961288 C27.889252,80.516045 28.668911,78.849510 29.906624,77.659309 C44.553162,63.575035 59.247353,49.539993 73.996674,35.563416 C75.498428,34.140335 77.439583,33.180946 80.005615,32.006824 C96.264191,31.994669 111.693985,31.982077 127.123779,31.969484 C128.092209,32.491638 129.229340,32.834774 130.002838,33.563763 C137.360092,40.497784 144.139252,48.179546 152.148132,54.241161 C157.604614,58.370964 158.080627,62.945393 158.056000,68.721085 C157.933105,97.547821 158.004196,126.375351 157.993408,155.202606 C157.992264,158.281281 158.741379,161.631790 154.671356,163.114670 C150.718552,164.554855 146.829758,164.846359 143.543945,161.962128 C138.197235,157.268906 132.736618,152.608932 128.072632,147.279816 C126.078796,145.001648 125.351707,141.118942 125.128471,137.890686 C124.668800,131.243256 122.864243,129.079300 116.159485,129.008987 C111.660919,128.961823 107.136528,128.705093 102.669479,129.083191 C98.256126,129.456757 95.150978,127.565636 92.191147,124.728889 C87.411980,120.148438 82.572968,115.627449 77.667221,111.182907 C72.868484,106.835327 73.486183,101.622887 80.042542,98.370743 C88.885628,98.666344 97.007156,98.965309 105.128113,98.950195 C110.071114,98.941002 115.013222,98.447441 119.955719,98.171463 C121.641640,96.666710 123.327553,95.161957 125.253036,92.933182 C125.382736,84.145874 125.272865,76.082596 125.162994,68.019310 C123.734390,66.357353 122.305801,64.695396 120.192482,62.686203 C110.936783,62.512283 102.365807,62.685596 93.794830,62.858910 C92.177818,63.909760 90.342636,64.734108 88.978783,66.047783 C79.270477,75.398819 69.658470,84.849838 59.711910,94.968948 C59.299397,104.133095 59.190784,112.597313 59.082176,121.061539 z" transform="matrix(1, 0, 0, 1, 0, -3.552713678800501e-15)"/>
</svg>
